<svg width="30" height="30" viewBox="0 0 30 30" fill="none" xmlns="http://www.w3.org/2000/svg">
<g clip-path="url(#clip0_37_2)">
<path d="M23.4109 27.1842C30.1862 22.4945 31.877 13.2002 27.1872 6.42485C22.4975 -0.350506 13.2032 -2.04124 6.42784 2.64849C-0.347514 7.33822 -2.03825 16.6325 2.65148 23.4079C7.34121 30.1832 16.6355 31.874 23.4109 27.1842Z" fill="#124484"/>
<path d="M2.63 17.11H9.47001V21.98H21.44V15.93H2.63V17.11ZM10.66 17.11H20.13V20.66H10.66V17.11ZM20.35 11.3H20.39V6.32H18.42V9.11L15.45 5.61L8.01 14.34H22.94L20.35 11.3ZM10.7 13.16L15.48 7.58L20.26 13.16H10.7V13.16Z" fill="white"/>
</g>
<defs>
<clipPath id="clip0_37_2">
<rect width="29.83" height="29.83" fill="white"/>
</clipPath>
</defs>
</svg>
