<svg width="80" height="107" viewBox="0 0 80 107" fill="none" xmlns="http://www.w3.org/2000/svg">
<g clip-path="url(#clip0_37_5)">
<path d="M65.57 41.43C65.57 27.3633 54.1689 15.96 40.105 15.96C26.0411 15.96 14.64 27.3633 14.64 41.43V70.95C14.64 85.0167 26.0411 96.42 40.105 96.42C54.1689 96.42 65.57 85.0167 65.57 70.95V41.43Z" fill="white"/>
<path d="M10.73 48.25C10.73 48.86 10.64 49.39 10.45 49.84C10.26 50.28 10.05 50.62 9.79999 50.86C9.54999 51.1 9.34999 51.21 9.16999 51.21C9.08999 51.21 9.00999 51.19 8.92999 51.14C8.83999 51.1 8.76999 51.04 8.71999 50.97C8.66999 50.9 8.63999 50.84 8.63999 50.77C8.63999 50.67 8.69999 50.57 8.81999 50.47C8.93999 50.37 9.07999 50.23 9.23999 50.07C9.39999 49.9 9.53999 49.68 9.65999 49.4C9.77999 49.12 9.83999 48.76 9.83999 48.3C9.83999 47.84 9.76999 47.46 9.61999 47.14C9.46999 46.82 9.24999 46.57 8.95999 46.41C8.66999 46.25 8.29999 46.16 7.85999 46.16C7.41999 46.16 7.02999 46.25 6.73999 46.42C6.45999 46.59 6.22999 46.82 6.04999 47.1C5.86999 47.38 5.71999 47.69 5.58999 48.03C5.45999 48.37 5.32999 48.71 5.19999 49.05C5.06999 49.39 4.90999 49.7 4.70999 49.99C4.50999 50.28 4.24999 50.5 3.92999 50.68C3.60999 50.86 3.19999 50.95 2.69999 50.95C2.16999 50.95 1.73999 50.85 1.39999 50.66C1.05999 50.47 0.799987 50.22 0.609987 49.92C0.419987 49.62 0.279987 49.29 0.199987 48.93C0.119987 48.57 0.0799866 48.23 0.0799866 47.89C0.0799866 47.62 0.0999866 47.34 0.139987 47.06C0.179987 46.78 0.239987 46.51 0.319987 46.27C0.399987 46.03 0.489987 45.84 0.589987 45.69C0.699987 45.54 0.819987 45.47 0.949987 45.47C1.01999 45.47 1.08999 45.49 1.16999 45.52C1.24999 45.55 1.31999 45.6 1.38999 45.66C1.44999 45.72 1.47999 45.79 1.47999 45.89C1.47999 45.98 1.42999 46.1 1.33999 46.25C1.24999 46.4 1.15999 46.61 1.06999 46.88C0.979987 47.14 0.929987 47.49 0.929987 47.91C0.929987 48.26 0.979987 48.59 1.07999 48.91C1.17999 49.23 1.34999 49.49 1.58999 49.7C1.82999 49.9 2.16999 50 2.59999 50C2.97999 50 3.28999 49.91 3.52999 49.73C3.76999 49.55 3.95999 49.32 4.09999 49.04C4.23999 48.76 4.37999 48.45 4.49999 48.11C4.61999 47.77 4.74999 47.44 4.89999 47.09C5.04999 46.75 5.23999 46.44 5.45999 46.15C5.67999 45.86 5.97999 45.64 6.34999 45.46C6.71999 45.29 7.18999 45.2 7.75999 45.2C8.43999 45.2 8.99999 45.33 9.43999 45.59C9.87999 45.85 10.2 46.21 10.41 46.66C10.62 47.12 10.73 47.64 10.73 48.24V48.25Z" fill="#124484"/>
<path d="M10.63 43.7C10.63 43.78 10.61 43.86 10.58 43.94C10.55 44.02 10.5 44.1 10.44 44.16C10.38 44.22 10.31 44.25 10.23 44.25C10.19 44.25 10.16 44.25 10.13 44.24L0.33 41.22C0.21 41.18 0.13 41.11 0.08 41C0.03 40.89 0 40.78 0 40.65C0 40.52 0.03 40.39 0.09 40.28C0.15 40.17 0.23 40.1 0.33 40.07L10.12 37.07C10.12 37.07 10.18 37.06 10.21 37.06C10.29 37.06 10.36 37.09 10.42 37.15C10.48 37.21 10.53 37.28 10.57 37.37C10.61 37.46 10.63 37.55 10.63 37.64C10.63 37.72 10.61 37.79 10.57 37.86C10.53 37.93 10.47 37.97 10.38 37.99L8.16 38.67V42.65L10.38 43.31C10.47 43.34 10.53 43.39 10.57 43.45C10.61 43.52 10.63 43.6 10.63 43.7ZM7.34 42.42V38.92L1.53 40.66L7.34 42.42Z" fill="#124484"/>
<path d="M11.26 33.91C11.24 34.03 11.18 34.14 11.11 34.24C11.03 34.34 10.93 34.39 10.81 34.39L0.630006 35.48C0.630006 35.48 0.570006 35.48 0.530006 35.48C0.440006 35.46 0.380006 35.42 0.330006 35.35C0.290006 35.28 0.250006 35.2 0.240006 35.11C0.220006 35.02 0.220006 34.93 0.240006 34.85C0.260006 34.76 0.290006 34.69 0.340006 34.63C0.390006 34.57 0.460006 34.54 0.550006 34.52L9.75001 33.61L1.58001 29.3C1.50001 29.26 1.45001 29.2 1.42001 29.13C1.39001 29.06 1.39001 28.98 1.41001 28.9C1.43001 28.81 1.46001 28.73 1.52001 28.66C1.57001 28.58 1.64001 28.52 1.70001 28.47C1.77001 28.42 1.85001 28.4 1.93001 28.42C1.93001 28.42 1.95001 28.42 1.96001 28.43C1.97001 28.43 1.99001 28.45 2.01001 28.46L11.03 33.27C11.14 33.33 11.21 33.42 11.24 33.54C11.27 33.66 11.28 33.78 11.26 33.9V33.91Z" fill="#124484"/>
<path d="M12.44 29.19C12.4 29.29 12.33 29.36 12.23 29.42C12.13 29.48 12.03 29.48 11.92 29.42L3.03001 25.28C2.93001 25.23 2.86001 25.15 2.85001 25.04C2.84001 24.93 2.85001 24.83 2.89001 24.73L5.06001 20.08C5.11001 19.97 5.19001 19.9 5.30001 19.89C5.41001 19.88 5.50001 19.89 5.59001 19.93C5.70001 19.98 5.79001 20.06 5.84001 20.15C5.90001 20.25 5.90001 20.35 5.85001 20.45L3.90001 24.63L7.49001 26.3L8.45001 24.25C8.50001 24.15 8.58001 24.08 8.68001 24.06C8.78001 24.04 8.89001 24.06 8.99001 24.1C9.07001 24.14 9.13001 24.2 9.19001 24.29C9.24001 24.38 9.24001 24.48 9.19001 24.59L8.23001 26.64L11.85 28.33L13.8 24.15C13.85 24.05 13.93 23.98 14.03 23.96C14.13 23.94 14.24 23.96 14.36 24.01C14.46 24.05 14.53 24.12 14.59 24.21C14.65 24.3 14.65 24.4 14.59 24.52L12.42 29.17L12.44 29.19Z" fill="#124484"/>
<path d="M17.2 21.24C16.84 21.68 16.44 22.01 16 22.24C15.56 22.46 15.08 22.54 14.56 22.46C14.04 22.38 13.49 22.11 12.91 21.64L7.33001 17.1C7.24001 17.03 7.20001 16.94 7.22001 16.82C7.24001 16.71 7.28001 16.6 7.36001 16.51C7.44001 16.41 7.53001 16.35 7.64001 16.31C7.75001 16.27 7.84001 16.29 7.93001 16.36L13.51 20.9C14.1 21.38 14.65 21.59 15.15 21.53C15.66 21.47 16.11 21.19 16.52 20.69C16.93 20.18 17.12 19.68 17.07 19.17C17.02 18.66 16.71 18.17 16.12 17.69L10.54 13.15C10.45 13.08 10.41 12.99 10.43 12.87C10.45 12.76 10.49 12.65 10.57 12.56C10.65 12.46 10.74 12.4 10.85 12.36C10.96 12.32 11.05 12.34 11.14 12.41L16.72 16.95C17.3 17.42 17.68 17.9 17.87 18.39C18.06 18.88 18.08 19.37 17.94 19.85C17.81 20.34 17.56 20.8 17.2 21.24V21.24Z" fill="#124484"/>
<path d="M24.67 14.48C24.58 14.54 24.48 14.56 24.34 14.52C24.21 14.49 24.09 14.44 23.98 14.37L19.61 12.23L18.14 13.32L20.78 16.87C20.85 16.97 20.87 17.08 20.83 17.19C20.79 17.3 20.72 17.39 20.62 17.46C20.52 17.53 20.41 17.58 20.3 17.58C20.19 17.58 20.09 17.54 20.02 17.44L14.17 9.55C14.11 9.47 14.09 9.39 14.11 9.3C14.13 9.21 14.18 9.13 14.25 9.06L16.3 7.54C16.76 7.2 17.22 6.96 17.71 6.82C18.2 6.68 18.67 6.69 19.14 6.85C19.61 7.01 20.06 7.38 20.5 7.97C20.86 8.45 21.07 8.9 21.14 9.33C21.21 9.76 21.17 10.15 21.02 10.52C20.87 10.89 20.65 11.23 20.35 11.54L24.68 13.64C24.68 13.64 24.75 13.66 24.78 13.69C24.8 13.71 24.82 13.74 24.84 13.76C24.89 13.82 24.91 13.9 24.91 13.99C24.91 14.08 24.89 14.17 24.85 14.26C24.81 14.35 24.75 14.41 24.68 14.47L24.67 14.48ZM17.65 12.67L19.23 11.5C19.75 11.12 20.07 10.68 20.21 10.19C20.34 9.7 20.19 9.16 19.76 8.58C19.33 8 18.86 7.71 18.36 7.7C17.86 7.7 17.35 7.88 16.83 8.26L15.25 9.43L17.66 12.67H17.65Z" fill="#124484"/>
<path d="M28.32 12.86C27.75 13.1 27.23 13.22 26.75 13.22C26.27 13.22 25.87 13.15 25.56 13.02C25.25 12.89 25.06 12.74 24.99 12.58C24.96 12.51 24.95 12.43 24.95 12.33C24.95 12.23 24.98 12.15 25.02 12.07C25.06 12 25.11 11.94 25.17 11.92C25.26 11.88 25.37 11.9 25.51 11.97C25.65 12.04 25.83 12.12 26.05 12.2C26.27 12.28 26.53 12.32 26.83 12.32C27.13 12.32 27.49 12.23 27.91 12.06C28.33 11.89 28.65 11.66 28.89 11.4C29.13 11.14 29.27 10.84 29.31 10.5C29.35 10.16 29.28 9.79 29.11 9.39C28.93 8.97 28.7 8.65999 28.43 8.45999C28.16 8.25999 27.86 8.13999 27.53 8.08999C27.2 8.03999 26.85 8.01999 26.49 8.02999C26.13 8.03999 25.77 8.05999 25.4 8.06999C25.04 8.07999 24.68 8.05999 24.35 7.98999C24.01 7.91999 23.7 7.76999 23.41 7.53999C23.12 7.30999 22.88 6.96999 22.68 6.50999C22.47 6.01999 22.39 5.58999 22.44 5.19999C22.48 4.81999 22.61 4.47999 22.81 4.17999C23.01 3.87999 23.26 3.63 23.56 3.41C23.86 3.2 24.16 3.02 24.47 2.89C24.72 2.78 24.98 2.69999 25.26 2.61999C25.54 2.54999 25.8 2.5 26.05 2.48C26.3 2.46 26.52 2.45999 26.69 2.49999C26.87 2.53999 26.98 2.62 27.04 2.74C27.07 2.8 27.08 2.88 27.08 2.97C27.08 3.06 27.07 3.14 27.04 3.22C27.01 3.3 26.95 3.36 26.86 3.4C26.78 3.43 26.65 3.44 26.48 3.41C26.3 3.39 26.07 3.38 25.8 3.41C25.53 3.44 25.19 3.52 24.8 3.69C24.48 3.83 24.19 3.99999 23.94 4.21999C23.68 4.43999 23.51 4.69999 23.42 4.99999C23.33 5.3 23.37 5.65 23.54 6.05C23.69 6.4 23.89 6.64999 24.15 6.79999C24.41 6.94999 24.69 7.02999 25.01 7.04999C25.33 7.06999 25.66 7.06999 26.02 7.04999C26.38 7.02999 26.74 7.01999 27.11 7.01999C27.48 7.01999 27.84 7.06999 28.19 7.16999C28.54 7.26999 28.87 7.44999 29.17 7.71999C29.47 7.98999 29.74 8.38999 29.96 8.91999C30.23 9.54999 30.33 10.11 30.26 10.62C30.19 11.12 29.99 11.56 29.65 11.94C29.31 12.31 28.87 12.62 28.32 12.85V12.86Z" fill="#124484"/>
<path d="M37.62 10.92C36.92 10.96 36.32 10.85 35.81 10.59C35.3 10.33 34.91 9.97999 34.62 9.52999C34.33 9.07999 34.17 8.57999 34.14 8.02999C34.11 7.53999 34.19 7.09999 34.36 6.71999C34.53 6.33999 34.76 5.99999 35.05 5.71999C35.34 5.43999 35.64 5.21999 35.95 5.05999C35.64 4.72999 35.36 4.36999 35.09 3.98999C34.82 3.60999 34.68 3.13999 34.65 2.58999C34.62 2.05999 34.72 1.60999 34.94 1.22999C35.16 0.849993 35.46 0.559993 35.85 0.349993C36.23 0.139993 36.66 0.0199928 37.13 -7.21309e-06C37.66 -0.0300072 38.1 0.0299928 38.45 0.189993C38.81 0.339993 39.07 0.529993 39.26 0.739993C39.45 0.949993 39.54 1.11999 39.55 1.25999C39.55 1.37999 39.52 1.47999 39.44 1.56999C39.36 1.65999 39.25 1.70999 39.13 1.71999C39.03 1.71999 38.94 1.67999 38.85 1.57999C38.76 1.47999 38.65 1.36999 38.52 1.23999C38.39 1.10999 38.22 0.999993 38.02 0.909993C37.81 0.819993 37.55 0.779993 37.22 0.799993C36.7 0.829993 36.3 1.00999 36.02 1.32999C35.74 1.65999 35.61 2.07999 35.64 2.59999C35.66 2.93999 35.74 3.23999 35.88 3.51999C36.02 3.79999 36.21 4.05999 36.43 4.29999C36.65 4.53999 36.88 4.77999 37.11 5.01999L40.22 8.05999C40.39 7.58999 40.49 7.10999 40.52 6.62999C40.55 6.14999 40.56 5.73999 40.56 5.41999C40.56 5.27999 40.59 5.17999 40.65 5.11999C40.7 5.04999 40.81 5.01999 40.98 5.00999C41.13 5.00999 41.24 5.03999 41.3 5.11999C41.36 5.19999 41.4 5.31999 41.41 5.49999C41.42 5.68999 41.41 5.95999 41.4 6.30999C41.38 6.65999 41.33 7.03999 41.26 7.45999C41.19 7.87999 41.05 8.28999 40.86 8.68999L42.26 10.04C42.26 10.04 42.31 10.1 42.33 10.14C42.35 10.18 42.36 10.21 42.36 10.24C42.36 10.35 42.32 10.44 42.24 10.53C42.15 10.62 42.06 10.66 41.95 10.67C41.9 10.67 41.86 10.67 41.81 10.65C41.77 10.63 41.72 10.6 41.67 10.56L40.44 9.36999C40.17 9.79999 39.8 10.16 39.34 10.45C38.88 10.74 38.32 10.91 37.65 10.95L37.62 10.92ZM37.69 10.05C38.23 10.02 38.66 9.88999 39 9.64999C39.33 9.40999 39.6 9.11999 39.8 8.76999L36.53 5.63999C36.32 5.76999 36.1 5.92999 35.87 6.12999C35.64 6.32999 35.46 6.56999 35.3 6.84999C35.15 7.12999 35.08 7.47999 35.1 7.88999C35.12 8.28999 35.24 8.66999 35.45 9.00999C35.66 9.34999 35.96 9.61999 36.34 9.80999C36.72 9.99999 37.17 10.08 37.69 10.05Z" fill="#124484"/>
<path d="M46.18 11.32C46.06 11.28 45.96 11.22 45.89 11.13C45.82 11.04 45.8 10.94 45.84 10.82L48.74 1.43999C48.77 1.34999 48.83 1.27999 48.91 1.23999C49 1.19999 49.1 1.19999 49.22 1.21999L51.75 1.99999C52.28 2.15999 52.73 2.40999 53.11 2.73999C53.49 3.06999 53.73 3.47999 53.84 3.98999C53.95 4.49999 53.9 5.09999 53.69 5.80999L53.65 5.94999C53.43 6.66999 53.13 7.19999 52.74 7.54999C52.35 7.89999 51.92 8.09999 51.42 8.15999C50.92 8.21999 50.41 8.15999 49.88 7.99999L47.9 7.38999L46.75 11.11C46.71 11.23 46.64 11.3 46.52 11.33C46.4 11.36 46.29 11.36 46.18 11.33V11.32ZM48.14 6.59999L50.12 7.20999C50.73 7.39999 51.27 7.37999 51.72 7.13999C52.17 6.89999 52.51 6.41999 52.73 5.70999L52.78 5.54999C53 4.82999 52.99 4.24999 52.75 3.80999C52.51 3.36999 52.08 3.03999 51.47 2.85999L49.49 2.24999L48.14 6.61999V6.59999Z" fill="#124484"/>
<path d="M51.79 12.82C51.72 12.78 51.66 12.73 51.6 12.65C51.54 12.58 51.5 12.5 51.49 12.42C51.47 12.34 51.49 12.26 51.52 12.2C51.54 12.17 51.56 12.14 51.58 12.12L59.11 5.17C59.2 5.09 59.31 5.05 59.42 5.06C59.53 5.07 59.65 5.1 59.76 5.17C59.88 5.24 59.97 5.32 60.03 5.43C60.1 5.54 60.12 5.64 60.09 5.75L57.76 15.72C57.76 15.72 57.74 15.78 57.73 15.8C57.69 15.87 57.63 15.91 57.55 15.94C57.47 15.96 57.38 15.97 57.29 15.96C57.2 15.95 57.11 15.92 57.02 15.87C56.95 15.83 56.9 15.78 56.86 15.71C56.82 15.64 56.82 15.57 56.84 15.48L57.37 13.22L53.93 11.22L52.24 12.81C52.17 12.87 52.1 12.9 52.02 12.9C51.94 12.9 51.86 12.87 51.78 12.83L51.79 12.82ZM54.55 10.62L57.58 12.38L59 6.48L54.56 10.62H54.55Z" fill="#124484"/>
<path d="M59.8 18.52C59.36 18.09 59.04 17.66 58.85 17.22C58.66 16.78 58.57 16.39 58.57 16.05C58.57 15.71 58.63 15.48 58.75 15.35C58.8 15.29 58.88 15.25 58.97 15.22C59.06 15.19 59.15 15.18 59.23 15.18C59.32 15.18 59.38 15.22 59.43 15.26C59.5 15.33 59.53 15.44 59.52 15.6C59.51 15.76 59.52 15.95 59.52 16.18C59.53 16.41 59.6 16.67 59.71 16.95C59.82 17.23 60.05 17.53 60.38 17.84C60.71 18.15 61.04 18.37 61.37 18.48C61.71 18.59 62.04 18.6 62.36 18.51C62.68 18.41 63 18.21 63.3 17.89C63.62 17.56 63.81 17.23 63.89 16.9C63.96 16.58 63.96 16.25 63.87 15.93C63.79 15.61 63.67 15.28 63.52 14.95C63.37 14.62 63.21 14.3 63.06 13.97C62.9 13.64 62.79 13.31 62.72 12.97C62.65 12.63 62.66 12.28 62.76 11.93C62.85 11.57 63.07 11.22 63.42 10.86C63.79 10.48 64.15 10.23 64.53 10.12C64.91 10.01 65.26 9.99 65.61 10.06C65.96 10.13 66.29 10.26 66.61 10.45C66.92 10.64 67.2 10.85 67.44 11.08C67.63 11.27 67.82 11.47 67.99 11.7C68.16 11.93 68.31 12.15 68.43 12.37C68.55 12.59 68.63 12.79 68.66 12.97C68.69 13.15 68.66 13.29 68.57 13.39C68.52 13.44 68.46 13.48 68.38 13.52C68.3 13.56 68.22 13.58 68.13 13.58C68.04 13.58 67.97 13.55 67.9 13.49C67.84 13.43 67.78 13.31 67.73 13.14C67.68 12.97 67.59 12.76 67.47 12.51C67.34 12.26 67.13 11.99 66.82 11.7C66.57 11.46 66.29 11.27 65.99 11.12C65.69 10.97 65.38 10.91 65.07 10.95C64.76 10.98 64.45 11.16 64.15 11.47C63.88 11.75 63.73 12.03 63.7 12.33C63.67 12.62 63.7 12.92 63.81 13.22C63.92 13.52 64.05 13.83 64.21 14.15C64.37 14.47 64.52 14.8 64.66 15.15C64.8 15.49 64.9 15.84 64.95 16.2C65 16.56 64.95 16.93 64.83 17.31C64.7 17.69 64.44 18.09 64.04 18.51C63.57 19 63.09 19.32 62.6 19.45C62.11 19.59 61.63 19.57 61.15 19.41C60.67 19.25 60.22 18.96 59.79 18.55L59.8 18.52Z" fill="#124484"/>
<path d="M64.03 23.57C63.69 23.06 63.48 22.56 63.4 22.09C63.31 21.62 63.31 21.22 63.39 20.88C63.47 20.55 63.58 20.34 63.72 20.24C63.78 20.2 63.86 20.17 63.96 20.16C64.06 20.15 64.15 20.16 64.23 20.18C64.31 20.21 64.37 20.25 64.41 20.31C64.46 20.39 64.47 20.51 64.42 20.66C64.37 20.81 64.33 21 64.29 21.23C64.25 21.46 64.26 21.72 64.31 22.02C64.36 22.32 64.51 22.66 64.76 23.04C65.01 23.42 65.28 23.7 65.58 23.89C65.88 24.08 66.2 24.16 66.54 24.14C66.88 24.12 67.23 23.99 67.6 23.75C67.99 23.5 68.25 23.22 68.39 22.92C68.53 22.62 68.6 22.3 68.59 21.97C68.58 21.64 68.54 21.29 68.47 20.94C68.39 20.59 68.32 20.23 68.24 19.88C68.16 19.52 68.13 19.17 68.14 18.83C68.15 18.49 68.24 18.15 68.41 17.82C68.58 17.49 68.88 17.2 69.29 16.92C69.73 16.63 70.15 16.47 70.53 16.45C70.92 16.43 71.27 16.49 71.6 16.64C71.93 16.79 72.22 16.99 72.49 17.24C72.75 17.49 72.98 17.76 73.16 18.04C73.31 18.26 73.44 18.51 73.56 18.77C73.68 19.03 73.77 19.28 73.84 19.53C73.91 19.77 73.94 19.99 73.93 20.17C73.93 20.35 73.86 20.48 73.75 20.55C73.69 20.59 73.62 20.61 73.54 20.63C73.45 20.65 73.37 20.65 73.28 20.63C73.19 20.61 73.13 20.57 73.08 20.49C73.03 20.42 73 20.29 73 20.11C73 19.93 72.95 19.71 72.89 19.44C72.82 19.17 72.67 18.86 72.44 18.5C72.25 18.21 72.02 17.96 71.76 17.75C71.5 17.54 71.21 17.41 70.9 17.37C70.59 17.33 70.25 17.43 69.89 17.67C69.57 17.88 69.36 18.13 69.26 18.4C69.16 18.68 69.13 18.98 69.16 19.29C69.19 19.61 69.25 19.94 69.34 20.29C69.43 20.64 69.5 20.99 69.56 21.36C69.62 21.73 69.64 22.09 69.6 22.45C69.57 22.81 69.44 23.16 69.23 23.51C69.02 23.85 68.67 24.19 68.19 24.5C67.62 24.87 67.08 25.07 66.57 25.1C66.06 25.12 65.59 25 65.17 24.74C64.74 24.47 64.37 24.09 64.04 23.59L64.03 23.57Z" fill="#124484"/>
<path d="M66.46 27.8C66.41 27.69 66.39 27.57 66.41 27.46C66.43 27.35 66.5 27.26 66.61 27.21L75.59 23.25C75.7 23.2 75.79 23.21 75.89 23.28C75.98 23.34 76.05 23.43 76.1 23.55C76.15 23.66 76.16 23.77 76.15 23.88C76.14 24 76.08 24.08 75.97 24.12L66.99 28.08C66.88 28.13 66.77 28.12 66.67 28.06C66.57 28 66.5 27.91 66.45 27.8H66.46Z" fill="#124484"/>
<path d="M68.03 32.72C67.9 32.18 67.88 31.66 67.97 31.18C68.06 30.69 68.29 30.27 68.67 29.91C69.05 29.55 69.6 29.28 70.33 29.1L74.68 28.05C75.4 27.88 76.01 27.87 76.51 28.02C77.01 28.17 77.41 28.44 77.71 28.83C78.01 29.22 78.23 29.69 78.36 30.24C78.49 30.79 78.51 31.31 78.42 31.8C78.33 32.29 78.1 32.71 77.72 33.08C77.34 33.45 76.8 33.72 76.08 33.89L71.73 34.94C71 35.12 70.38 35.13 69.88 34.97C69.38 34.81 68.98 34.54 68.67 34.15C68.37 33.76 68.15 33.29 68.02 32.73L68.03 32.72ZM68.88 32.51C69.03 33.14 69.32 33.59 69.75 33.86C70.18 34.13 70.77 34.18 71.5 34L75.85 32.95C76.58 32.77 77.07 32.47 77.33 32.03C77.59 31.59 77.64 31.06 77.49 30.43C77.34 29.8 77.05 29.36 76.62 29.1C76.19 28.84 75.61 28.79 74.88 28.97L70.53 30.02C69.79 30.2 69.29 30.5 69.03 30.93C68.77 31.36 68.71 31.89 68.86 32.51H68.88Z" fill="#124484"/>
<path d="M68.92 37.7C68.92 37.57 68.95 37.46 69.01 37.37C69.07 37.27 69.17 37.23 69.29 37.23H79.09C79.22 37.23 79.32 37.28 79.37 37.37C79.42 37.46 79.45 37.58 79.45 37.7C79.45 37.82 79.42 37.92 79.36 38C79.3 38.09 79.22 38.17 79.12 38.24C79.02 38.32 78.91 38.38 78.79 38.44L71.12 42.33H79.11C79.23 42.33 79.32 42.38 79.38 42.47C79.44 42.56 79.46 42.68 79.46 42.8C79.46 42.92 79.43 43.02 79.38 43.12C79.33 43.22 79.24 43.27 79.11 43.27H69.29C69.17 43.27 69.07 43.22 69.01 43.12C68.95 43.02 68.92 42.91 68.92 42.8C68.92 42.67 68.98 42.55 69.09 42.44C69.2 42.33 69.33 42.24 69.46 42.17L77.26 38.16H69.29C69.17 38.16 69.07 38.11 69.01 38.01C68.95 37.91 68.92 37.8 68.92 37.69V37.7Z" fill="#124484"/>
<path d="M68.82 47.93C68.82 47.32 68.91 46.79 69.1 46.34C69.29 45.9 69.5 45.56 69.75 45.32C70 45.08 70.2 44.97 70.38 44.97C70.46 44.97 70.54 44.99 70.62 45.04C70.71 45.08 70.78 45.14 70.83 45.21C70.88 45.28 70.91 45.34 70.91 45.41C70.91 45.51 70.85 45.61 70.73 45.71C70.61 45.81 70.47 45.95 70.31 46.11C70.15 46.28 70.01 46.5 69.89 46.78C69.77 47.06 69.71 47.42 69.71 47.88C69.71 48.34 69.78 48.72 69.93 49.04C70.08 49.36 70.3 49.61 70.59 49.77C70.88 49.93 71.25 50.02 71.69 50.02C72.13 50.02 72.52 49.93 72.81 49.76C73.09 49.59 73.32 49.36 73.5 49.08C73.68 48.8 73.83 48.49 73.96 48.15C74.09 47.81 74.22 47.47 74.35 47.13C74.48 46.79 74.64 46.48 74.84 46.19C75.04 45.9 75.3 45.68 75.62 45.5C75.94 45.32 76.35 45.23 76.85 45.23C77.38 45.23 77.81 45.33 78.15 45.52C78.49 45.71 78.75 45.96 78.94 46.26C79.13 46.56 79.27 46.89 79.35 47.25C79.43 47.61 79.47 47.95 79.47 48.29C79.47 48.56 79.45 48.84 79.41 49.12C79.37 49.4 79.31 49.67 79.23 49.91C79.15 50.15 79.06 50.34 78.96 50.49C78.85 50.64 78.73 50.71 78.6 50.71C78.53 50.71 78.46 50.69 78.38 50.66C78.3 50.63 78.23 50.58 78.16 50.52C78.1 50.46 78.07 50.39 78.07 50.29C78.07 50.2 78.12 50.08 78.21 49.93C78.3 49.78 78.39 49.57 78.48 49.3C78.57 49.04 78.62 48.69 78.62 48.27C78.62 47.92 78.57 47.59 78.47 47.27C78.37 46.95 78.2 46.69 77.96 46.48C77.72 46.28 77.38 46.18 76.95 46.18C76.57 46.18 76.26 46.27 76.02 46.45C75.78 46.63 75.59 46.86 75.45 47.14C75.31 47.42 75.17 47.73 75.05 48.07C74.93 48.41 74.8 48.74 74.65 49.09C74.5 49.43 74.31 49.74 74.09 50.03C73.87 50.32 73.57 50.54 73.2 50.72C72.83 50.89 72.36 50.98 71.79 50.98C71.11 50.98 70.55 50.85 70.11 50.59C69.67 50.33 69.35 49.97 69.14 49.52C68.93 49.06 68.82 48.54 68.82 47.94V47.93Z" fill="#124484"/>
<path d="M39.76 106.77C8.94 106.77 4.69 88.68 4.69 69.14V55.15H6.75V69.14C6.75 90.49 12.36 104.71 39.76 104.71C67.16 104.71 72.81 85.4 72.81 69.19V55.15H74.87V69.19C74.87 93.42 62.4 106.77 39.76 106.77V106.77Z" fill="#124484"/>
<path d="M46.19 33.25V33.15C46.15 32.91 46.18 32.58 46.19 32.52C46.19 32.52 46.23 32.52 46.33 32.54C46.42 32.56 46.52 32.58 46.64 32.6C50.23 33.23 52.05 40.58 52.05 54.42C52.05 54.49 51.78 61.2 49.59 67.69L49.55 67.8V73.47C49.99 73.2 50.46 72.96 50.92 72.73V68.02C53.14 61.37 53.4 54.74 53.41 54.44C53.41 44.18 52.67 32.27 46.87 31.24C46.79 31.23 46.72 31.21 46.66 31.2C45.98 31.03 45.55 31.26 45.31 31.48C44.71 32.02 44.77 32.99 44.81 33.29V67.25C45.29 68 45.75 68.8 46.18 69.66V33.25H46.19Z" fill="#124484"/>
<path d="M33.63 60.14C34.43 59.34 36.9 56.7 36.9 54.47C36.9 52.24 36 34.21 35.96 33.44L34.59 33.51C34.59 33.7 35.52 52.22 35.52 54.47C35.52 56.1 33.31 58.55 32.46 59.35L32.25 59.55V69C32.66 68.26 33.12 67.52 33.62 66.8V60.14H33.63Z" fill="#124484"/>
<path d="M33.62 33.47H32.25V52.92H33.62V33.47Z" fill="#124484"/>
<path d="M30.72 72.41V59.56L30.51 59.36C29.66 58.56 27.45 56.11 27.45 54.48C27.45 52.24 28.37 33.71 28.38 33.52L27.01 33.45C26.97 34.21 26.07 52.2 26.07 54.48C26.07 56.76 28.54 59.35 29.34 60.15V73.35C29.65 73.52 29.96 73.71 30.27 73.9C30.4 73.41 30.54 72.91 30.71 72.42L30.72 72.41Z" fill="#124484"/>
<path d="M30.72 33.47H29.35V52.92H30.72V33.47Z" fill="#124484"/>
<path d="M66.22 40.39C66.22 25.83 54.36 13.98 39.77 13.98C25.18 13.98 13.33 25.83 13.33 40.39V72.56C13.33 74.94 13.61 77.16 14.11 79.25C15.01 83.81 16.95 87.58 19.96 90.49C27.41 97.7 38.56 97.03 39.2 96.99C39.2 96.99 39.22 96.99 39.23 96.99H39.28L39.6 96.97L40.43 97C48.65 97.33 55.07 95.18 59.52 90.58C61.69 88.34 63.13 85.77 64.11 83.25C65.47 80.12 66.21 76.55 66.21 72.6V40.39H66.22ZM39.79 16.38C53.04 16.38 63.82 27.15 63.82 40.39V70.13C58.82 70.05 54.52 70.93 50.94 72.74C50.47 72.98 50.01 73.22 49.57 73.48C49.03 73.81 48.52 74.18 48.02 74.55C47.58 72.78 46.95 71.14 46.2 69.67C45.77 68.81 45.3 68 44.83 67.26C42.59 63.76 40.16 61.62 39.98 61.46L39.13 60.72L38.3 61.48C36.43 63.2 34.9 64.97 33.64 66.79C33.13 67.52 32.68 68.25 32.27 68.99C31.65 70.11 31.13 71.25 30.74 72.4C30.57 72.89 30.43 73.38 30.3 73.88C29.99 73.69 29.68 73.5 29.37 73.33C23.9 70.38 18.03 70.12 15.76 70.15V40.39C15.76 27.15 26.54 16.38 39.81 16.38H39.79ZM44.49 94.3C43.64 94.36 42.77 94.4 41.88 94.39C41.85 94.39 41.81 94.39 41.78 94.39C41.79 93.42 41.87 91.91 42.15 90.15C42.62 87.18 43.69 83.46 46.03 80.24C46.5 79.59 47.01 78.96 47.59 78.36C47.8 78.14 48.03 77.96 48.25 77.75C48.34 77.67 48.42 77.59 48.51 77.51C49.26 76.84 50.06 76.24 50.93 75.71C54.26 73.69 58.44 72.68 63.42 72.72C63.39 75.09 62.99 80.6 60.12 85.43C56.81 90.27 51.39 93.39 44.48 94.28L44.49 94.3ZM36.39 94.34C34.24 94.21 31.01 93.76 27.78 92.43C27.65 92.37 27.51 92.32 27.38 92.27C27.18 92.18 26.98 92.07 26.77 91.97C23.4 90.3 20.72 87.84 18.85 84.73C17.04 81.49 16.12 77.51 16.16 72.78C18.68 72.81 24.75 73.27 29.79 76.67C30.62 77.23 31.42 77.86 32.17 78.58C32.17 78.58 32.19 78.6 32.2 78.61C32.2 78.63 32.2 78.65 32.2 78.67C35.51 81.88 37.38 86.33 37.78 91.96C37.83 92.73 37.85 93.59 37.85 94.41C37.45 94.41 36.97 94.39 36.42 94.36M32.73 74.64C32.96 73.73 33.27 72.83 33.65 71.94C34.8 69.28 36.62 66.69 39.16 64.18C40.52 65.57 43.24 68.69 44.84 72.82C45.28 73.95 45.63 75.17 45.85 76.44C45.8 76.49 45.75 76.53 45.7 76.58C45.38 76.91 45.1 77.25 44.81 77.59C42.02 80.9 40.59 84.73 39.87 88.04C38.95 83.43 36.98 79.62 33.93 76.71C33.48 76.28 33.01 75.87 32.53 75.5C32.53 75.48 32.53 75.46 32.53 75.44C32.58 75.17 32.64 74.91 32.7 74.64H32.73ZM39.17 96.96L39.22 97L39.17 96.96Z" fill="#124484"/>
</g>
<defs>
<clipPath id="clip0_37_5">
<rect width="79.49" height="106.77" fill="white"/>
</clipPath>
</defs>
</svg>
